<svg width="24" height="24" viewBox="0 0 24 24" fill="none" xmlns="http://www.w3.org/2000/svg">
<path fill-rule="evenodd" clip-rule="evenodd" d="M8 4C5.79086 4 4 5.79086 4 8C4 10.2091 5.79086 12 8 12C10.2091 12 12 10.2091 12 8C12 5.79086 10.2091 4 8 4ZM6 13C3.79086 13 2 14.7909 2 17V18C2 19.1046 2.89543 20 4 20H12C13.1046 20 14 19.1046 14 18V17C14 14.7909 12.2091 13 10 13H6Z" fill="#4585EC"/>
<path fill-rule="evenodd" clip-rule="evenodd" d="M13.2508 10.9055C13.7282 10.0447 14 9.05408 14 8C14 6.94592 13.7282 5.95532 13.2508 5.09447C13.9676 4.41606 14.9352 4 16 4C18.2091 4 20 5.79086 20 8C20 10.2091 18.2091 12 16 12C14.9352 12 13.9676 11.5839 13.2508 10.9055ZM15.4649 20C15.8052 19.4117 16 18.7286 16 18V17C16 15.4633 15.4223 14.0615 14.4722 13H18C20.2091 13 22 14.7909 22 17V18C22 19.1046 21.1046 20 20 20H15.4649Z" fill="#4585EC"/>
</svg>
