<svg width="24" height="24" viewBox="0 0 24 24" fill="none" xmlns="http://www.w3.org/2000/svg">
<path fill-rule="evenodd" clip-rule="evenodd" d="M11.9061 1.99361C13.3698 1.97523 14.8105 2.35865 16.0712 3.10212C17.332 3.84558 18.3646 4.92059 19.0565 6.21009C19.7484 7.49959 20.0731 8.95414 19.9953 10.4153C19.9201 11.8263 19.4725 13.1911 18.6991 14.3716C18.6638 14.444 18.6195 14.5128 18.5662 14.5762L18.4584 14.7047C18.2804 14.9483 18.0889 15.1817 17.8848 15.4039L12.7729 21.6277C12.5831 21.8588 12.2998 21.9928 12.0008 21.993C11.7017 21.9932 11.4182 21.8596 11.2281 21.6288L5.98183 15.2595L5.97989 15.2572C5.87603 15.1326 5.77316 15.0051 5.67142 14.8761L5.53751 14.7137C5.48589 14.6511 5.44281 14.5835 5.40848 14.5124C4.61637 13.3575 4.14086 12.0139 4.03111 10.6158C3.9166 9.15701 4.20467 7.69476 4.86395 6.3883C5.52323 5.08184 6.52845 3.98124 7.77015 3.20635C9.01186 2.43146 10.4424 2.01199 11.9061 1.99361ZM15 9.99719C15 11.6535 13.6569 12.9961 12 12.9961C10.3432 12.9961 9.00005 11.6535 9.00005 9.99719C9.00005 8.34092 10.3432 6.99824 12 6.99824C13.6569 6.99824 15 8.34092 15 9.99719Z" fill="#4585EC"/>
</svg>
