<svg width="24" height="24" viewBox="0 0 24 24" fill="none" xmlns="http://www.w3.org/2000/svg">
<path fill-rule="evenodd" clip-rule="evenodd" d="M5.53467 7.67699C5.84796 6.6978 6.22167 5.65421 6.46146 5H17.4591C17.7115 5.62973 18.1053 6.64046 18.4356 7.60909C18.602 8.09747 18.7482 8.56301 18.8516 8.95712C18.9618 9.37729 19 9.63168 19 9.736C19 9.91546 18.9685 10.0909 18.9093 10.2515C18.8502 10.4121 18.7661 10.5509 18.6668 10.6626C18.5677 10.7741 18.4564 10.8554 18.343 10.9083C18.23 10.961 18.1138 10.986 18 10.986C17.8862 10.986 17.77 10.961 17.657 10.9083C17.5436 10.8554 17.4323 10.7741 17.3332 10.6626C17.2339 10.5509 17.1498 10.4121 17.0907 10.2515C17.0315 10.0909 17 9.91546 17 9.736C17 9.18372 16.5523 8.736 16 8.736C15.4477 8.736 15 9.18372 15 9.736C15 10.1031 14.8693 10.4348 14.6668 10.6626C14.4677 10.8866 14.2247 10.986 14 10.986C13.7753 10.986 13.5323 10.8866 13.3332 10.6626C13.1307 10.4348 13 10.1031 13 9.736C13 9.18372 12.5523 8.736 12 8.736C11.4477 8.736 11 9.18372 11 9.736C11 10.1031 10.8693 10.4348 10.6668 10.6626C10.4677 10.8866 10.2247 10.986 10 10.986C9.77534 10.986 9.5323 10.8866 9.3332 10.6626C9.13167 10.4359 9.00127 10.1063 9.00001 9.74136L9 9.73324C8.99847 9.1815 8.55036 8.73524 7.99862 8.736C7.44687 8.73676 7 9.18425 7 9.736L7.00001 9.7441C6.99988 9.92263 6.96872 10.0973 6.91028 10.2574C6.88452 10.328 6.85396 10.3944 6.81941 10.4563C6.81208 10.4676 6.80497 10.4791 6.79807 10.4907C6.76006 10.5549 6.71811 10.6131 6.67326 10.6652L6.66734 10.6719C6.56785 10.7846 6.45604 10.8669 6.34186 10.9205C6.23802 10.9693 6.13148 10.9949 6.02646 10.9993C5.8505 10.983 5.66907 10.9122 5.50528 10.7798C5.49136 10.7673 5.47719 10.7553 5.46278 10.7437C5.42768 10.7124 5.39352 10.6781 5.36054 10.6408C5.15727 10.4107 5.02085 10.0862 5.00052 9.72368L5.00082 9.71812C5.00159 9.70642 5.00297 9.69063 5.0053 9.67036C5.01003 9.62926 5.01787 9.57638 5.02976 9.51081C5.05368 9.37885 5.09043 9.21481 5.13964 9.0218C5.23803 8.63588 5.37689 8.17016 5.53467 7.67699ZM4 12.112C3.9525 12.0646 3.90635 12.0155 3.86164 11.9649C3.33041 11.3635 3.03279 10.5813 3.00079 9.77569C3.00026 9.76247 3 9.74923 3 9.736C3 9.38742 3.09767 8.93549 3.20163 8.52772C3.31403 8.0868 3.46629 7.5786 3.62979 7.06755C3.95736 6.04369 4.34453 4.96376 4.58767 4.30068C4.87766 3.50982 5.62886 3 6.45631 3H17.4656C18.2688 3 19.0049 3.48111 19.3103 4.24272C19.5675 4.88425 19.9795 5.93965 20.3286 6.96375C20.5029 7.47507 20.6657 7.99072 20.7861 8.44968C20.8997 8.88258 21 9.35314 21 9.736C21 10.1475 20.9281 10.5572 20.7862 10.9426C20.6443 11.328 20.4337 11.6852 20.1616 11.9914C20.1098 12.0497 20.0559 12.1059 20 12.16V19C20 20.1046 19.1046 21 18 21H12C11.4477 21 11 20.5523 11 20V16H8V20C8 20.5523 7.55228 21 7 21H6C4.89543 21 4 20.1046 4 19V12.112ZM13 15C13 14.4477 13.4477 14 14 14H16C16.5523 14 17 14.4477 17 15V17C17 17.5523 16.5523 18 16 18H14C13.4477 18 13 17.5523 13 17V15Z" fill="#4585EC"/>
</svg>
